<?xml version="1.0" encoding="UTF-8" standalone="no"?>
<svg
   class="external-icon"
   viewBox="0 0 296.08719 78.123932"
   focusable="false"
   style="display:block"
   version="1.1"
   id="svg3"
   width="296.08719"
   height="78.123932"
   xmlns="http://www.w3.org/2000/svg"
   xmlns:svg="http://www.w3.org/2000/svg">
  <defs
     id="defs3" />
  <svg
     viewBox="0 0 28.57 20"
     preserveAspectRatio="xMidYMid"
     version="1.1"
     id="svg2"
     width="100%"
     height="100%">
    <rect
       style="fill:#000000;fill-opacity:1;stroke:#333333;stroke-width:0.755906;stroke-dasharray:none;stroke-opacity:1"
       id="rect3"
       width="50.038414"
       height="38.617157"
       x="9.0140848"
       y="49.475033" />
    <g
       id="g2"
       style="fill:#000000;fill-opacity:1;stroke:#333333;stroke-width:1.13484;stroke-dasharray:none;stroke-opacity:1"
       transform="matrix(0.18482263,0,0,0.18482263,2.0450914,0.92316226)">
      <path
         d="M 27.9727,3.12324 C 27.6435,1.89323 26.6768,0.926623 25.4468,0.597366 23.2197,2.24288e-7 14.285,0 14.285,0 14.285,0 5.35042,2.24288e-7 3.12323,0.597366 1.89323,0.926623 0.926623,1.89323 0.597366,3.12324 2.24288e-7,5.35042 0,10 0,10 c 0,0 2.24288e-7,4.6496 0.597366,6.8768 0.329257,1.23 1.295864,2.1966 2.525864,2.5258 C 5.35042,20 14.285,20 14.285,20 c 0,0 8.9347,0 11.1618,-0.5974 1.23,-0.3292 2.1967,-1.2958 2.5259,-2.5258 C 28.5701,14.6496 28.5701,10 28.5701,10 c 0,0 -0.0024,-4.64958 -0.5974,-6.87676 z"
         fill="#FF0000"
         id="path1"
         style="fill:#000000;fill-opacity:1;stroke:#333333;stroke-width:1.13484;stroke-dasharray:none;stroke-opacity:1" />
    </g>
    <text
       xml:space="preserve"
       style="font-style:normal;font-variant:normal;font-weight:bold;font-stretch:normal;font-size:1.8796px;font-family:'Adwaita Mono';-inkscape-font-specification:'Adwaita Mono, Bold';font-variant-ligatures:normal;font-variant-caps:normal;font-variant-numeric:normal;font-variant-east-asian:normal;writing-mode:lr-tb;direction:ltr;fill:#333333;fill-opacity:1;stroke:none;stroke-width:0.133199;stroke-dasharray:none;stroke-opacity:1"
       x="7.9073997"
       y="3.4546225"
       id="text3"><tspan
         id="tspan3"
         x="7.9073997"
         y="3.4546225"
         style="font-style:normal;font-variant:normal;font-weight:bold;font-stretch:normal;font-size:1.8796px;font-family:'Adwaita Mono';-inkscape-font-specification:'Adwaita Mono, Bold';font-variant-ligatures:normal;font-variant-caps:normal;font-variant-numeric:normal;font-variant-east-asian:normal;fill:#333333;fill-opacity:1;stroke:none;stroke-width:0.133199">blck</tspan></text>
  </svg>
</svg>
